<svg xmlns="http://www.w3.org/2000/svg" width="25" height="24" viewBox="0 0 25 24" fill="none"><mask id="mask0_1_2" style="mask-type:alpha" maskUnits="userSpaceOnUse" x="0" y="0" width="25" height="24"><path fill-rule="evenodd" clip-rule="evenodd" d="M11.6659 6.30405C11.3686 6.0157 11.3612 5.54088 11.6496 5.24352C11.938 4.94615 12.4128 4.93885 12.7101 5.2272L18.8976 11.2272C19.0433 11.3685 19.1255 11.5627 19.1255 11.7656C19.1255 11.9685 19.0433 12.1628 18.8976 12.3041L12.7101 18.3041C12.4128 18.5924 11.938 18.5851 11.6496 18.2877C11.3612 17.9904 11.3686 17.5156 11.6659 17.2272L16.5247 12.5156H6.34423C5.93002 12.5156 5.59423 12.1798 5.59423 11.7656C5.59423 11.3514 5.93002 11.0156 6.34423 11.0156H16.5247L11.6659 6.30405Z" fill="#A7ABC3"></path></mask><g mask="url(#mask0_1_2)"><rect x="0.359863" width="24" height="24" fill="white"></rect></g></svg>